# xmcd
#
# Track frame offsets: 
#        150
#        27082
#        54072
#        76010
#        116195
#        138015
#        164200
#        184612
#        219407
#        242300
#        273340
#        296780
#
# Disc length: 4220 seconds
#
# Revision: 0
# Processed by: cddbd v1.4PL0 Copyright (c) Steve Scherf et al.
# Submitted via: ExactAudioCopy v0.90b4
#
DISCID=9e107a0c
DTITLE=Shelley Scown - Angel
DYEAR=1997
DGENRE=Blues
TTITLE0=Night and Day
TTITLE1=Angel
TTITLE2=Revival (for M.B.H.)
TTITLE3=Strangers
TTITLE4=Walk On By
TTITLE5=Never Let Me Go
TTITLE6=Takes Two To Tangle
TTITLE7='Round Midnight
TTITLE8=Blessed Burdens
TTITLE9=Darling, Come Back To Me
TTITLE10=In Love In Vain
TTITLE11=Dark Is The Wine
EXTD=
EXTT0=
EXTT1=
EXTT2=
EXTT3=
EXTT4=
EXTT5=
EXTT6=
EXTT7=
EXTT8=
EXTT9=
EXTT10=
EXTT11=
PLAYORDER=
